PathFileType	4	(X/Y/Z)	/Users/niels/Desktop/University/Third Semester/Perception and Action/Exam/Gymnastics Motion Tracking/Code for Gym Tracking/Analyzed Data/Webcam_Backflip/id2_1_pure_Sports2D/id2_1_pure_Sports2D_px_person00.trc
DataRate	CameraRate	NumFrames	NumMarkers	Units	OrigDataRate	OrigDataStartFrame	OrigNumFrames
29.875	29.875	10	22	m	29.875	30	240
Frame#	Time	Hip			RHip			RKnee			RAnkle			RBigToe			RSmallToe			RHeel			LHip			LKnee			LAnkle			LBigToe			LSmallToe			LHeel			Neck			Head			Nose			RShoulder			RElbow			RWrist			LShoulder			LElbow			LWrist		
		X1	Y1	Z1	X2	Y2	Z2	X3	Y3	Z3	X4	Y4	Z4	X5	Y5	Z5	X6	Y6	Z6	X7	Y7	Z7	X8	Y8	Z8	X9	Y9	Z9	X10	Y10	Z10	X11	Y11	Z11	X12	Y12	Z12	X13	Y13	Z13	X14	Y14	Z14	X15	Y15	Z15	X16	Y16	Z16	X17	Y17	Z17	X18	Y18	Z18	X19	Y19	Z19	X20	Y20	Z20	X21	Y21	Z21	X22	Y22	Z22
30	1.00418410041841	0.9547407591297019	-0.5625217141265606	0.0	0.95635695644246	-0.5631579309144119	0.0	0.9595081344049531	-0.6764202053504325	0.0	0.9380744238184338	-0.7976914600757743	0.0	0.969937312545992	-0.8161213497112842	0.0	0.960294667034691	-0.8209056273077948	0.0	0.9284488378595108	-0.8150680581229218	0.0	0.9579575507225112	-0.5614477023337666	0.0	0.9611861578268751	-0.6756408950939414	0.0	0.9424993699544802	-0.7905843851770474	0.0	0.9800585296654986	-0.8101731260222778	0.0	0.9741019514817609	-0.8038390045264086	0.0	0.9292214660267946	-0.8031696547398827	0.0	0.958623816191897	-0.40888619129961273	0.0	0.9862742982986928	-0.33090288945406077	0.0	0.9880744362413362	-0.37186309270540985	0.0	0.9496169780235495	-0.4132194640348449	0.0	0.9532972823080504	-0.33130922016230674	0.0	0.9633937761111416	-0.26441577158633434	0.0	0.9552472750594795	-0.41613131494116057	0.0	0.9616685491831594	-0.3390605712942706	0.0	0.9649245260667351	-0.2737587790399207	0.0
31	1.0376569037656902	0.954996695189611	-0.5606216102941546	0.0	0.9563889535204589	-0.5613385291034341	0.0	0.9597504020155405	-0.6747332387108433	0.0	0.937809599824191	-0.7958201534915348	0.0	0.9695766822390856	-0.8145201275986297	0.0	0.9598885601602086	-0.8193339756309033	0.0	0.9280692919063491	-0.8131899116283039	0.0	0.958393568768158	-0.559770580585811	0.0	0.961644379682324	-0.6740473710927635	0.0	0.9424050218654734	-0.7886276914904676	0.0	0.9800365337433443	-0.8081746667438922	0.0	0.9740045753149082	-0.8018966988628944	0.0	0.9289477890612243	-0.8010780530749472	0.0	0.9589066261676981	-0.40682948157659443	0.0	0.9863157678008911	-0.32886214991657925	0.0	0.9887443786140134	-0.3696054104684309	0.0	0.9496689845267932	-0.41147344870798785	0.0	0.9535174709959647	-0.3300318754693815	0.0	0.9639000841372757	-0.26301076918996885	0.0	0.9559524695976447	-0.4145307221887031	0.0	0.9619224901417809	-0.33772842978726425	0.0	0.9656787834617511	-0.2722308512233195	0.0
32	1.0711297071129706	0.955295026826132	-0.5586403952913478	0.0	0.9565321129948825	-0.5593489514483714	0.0	0.959878619984606	-0.6728740101812629	0.0	0.937574793669148	-0.7938299025632143	0.0	0.9693008817022303	-0.8126980315618687	0.0	0.959583429565219	-0.8176323967275796	0.0	0.9277927090344223	-0.8111679377230911	0.0	0.9587963546757018	-0.5580648751247875	0.0	0.9619704803271786	-0.6722084728565967	0.0	0.9422447553165778	-0.7865370277942162	0.0	0.980150077721814	-0.8062031605360963	0.0	0.9740250503207113	-0.7997855901512452	0.0	0.9286560216518476	-0.7989682235369322	0.0	0.9592236771190118	-0.40464957878325686	0.0	0.9862975243828369	-0.3266222775027728	0.0	0.9892262873177909	-0.3672546830475393	0.0	0.9498067599431583	-0.40955560298173355	0.0	0.9537060504400638	-0.3283085676276785	0.0	0.9643022526195589	-0.2612518592123233	0.0	0.9566136274695493	-0.41283888602269053	0.0	0.9619733909281571	-0.3359919516508905	0.0	0.9662679447630271	-0.27034923748352047	0.0
33	1.104602510460251	0.9556233631152758	-0.5566752628161811	0.0	0.9568442727478005	-0.5573319199709893	0.0	0.9599542697496141	-0.6709182526233206	0.0	0.9374435949125074	-0.7919075071788033	0.0	0.9692509589318136	-0.8107735540894383	0.0	0.9594878975429245	-0.8158762161356389	0.0	0.9276479543002505	-0.80919730179798	0.0	0.9591421619380998	-0.5563754688985846	0.0	0.9621433204345566	-0.6702252818422464	0.0	0.942097079197772	-0.784502245961501	0.0	0.9804124774638263	-0.8043935847640229	0.0	0.9741924624092497	-0.7976701384224296	0.0	0.9283636324688336	-0.7970141364483689	0.0	0.9595743216759965	-0.40254016634039314	0.0	0.986254479064648	-0.3242499405049462	0.0	0.9895327519993773	-0.3649866236763277	0.0	0.9500993993052244	-0.40763485463631155	0.0	0.9538957330548637	-0.32632235928437175	0.0	0.9645145849555761	-0.25935212707809724	0.0	0.9571341990049821	-0.41117801093372136	0.0	0.961897164724222	-0.3340204441600919	0.0	0.9666326152102711	-0.2684000882772443	0.0
34	1.1380753138075312	0.9559766354375643	-0.5547995231842117	0.0	0.9572904212223484	-0.5554315580175211	0.0	0.9600347861767347	-0.6690123025233979	0.0	0.9374255510648242	-0.7902450795066188	0.0	0.9694722120468202	-0.8089421818769428	0.0	0.9596270174686736	-0.8142348711691296	0.0	0.9276195064324572	-0.8074876468199373	0.0	0.9594641963591463	-0.5547381361417331	0.0	0.9622210907742244	-0.6683053334194149	0.0	0.9420534174177503	-0.782767927414125	0.0	0.9807698541172126	-0.802846908057494	0.0	0.9745055108018585	-0.7958225632557908	0.0	0.9280755720790574	-0.7953944826882262	0.0	0.9599532711243712	-0.40064667449541075	0.0	0.9862328916581178	-0.3219181516338456	0.0	0.9897571868839055	-0.36296535291770154	0.0	0.9505422979877469	-0.40584853281951	0.0	0.9540905255961036	-0.3243965423126473	0.0	0.9644461964256079	-0.25757033059537815	0.0	0.9575424076928677	-0.40962938380130554	0.0	0.9618462773382375	-0.3321283643998883	0.0	0.9667052031776882	-0.26666100812217963	0.0
35	1.1715481171548117	0.9563669610244936	-0.5530970701544967	0.0	0.9577580139955983	-0.5537674306332999	0.0	0.9601382292607008	-0.6673723878547099	0.0	0.9374986287325144	-0.7889835549542714	0.0	0.9699082941828275	-0.8074331762847441	0.0	0.9599397491072821	-0.8129267378543931	0.0	0.9276780617333447	-0.8062036764852324	0.0	0.9597933339560801	-0.5532337215037273	0.0	0.9622703288395246	-0.6666969617001114	0.0	0.9421422717690728	-0.7815453840664355	0.0	0.98114348098676	-0.8016776335571253	0.0	0.9749178229592346	-0.794534161546289	0.0	0.9278169477869719	-0.794246590440976	0.0	0.9603591274404507	-0.3990796685532709	0.0	0.9862321949525917	-0.31989040987214784	0.0	0.9900177522912136	-0.3612941908463055	0.0	0.9510456189032274	-0.40432889200503674	0.0	0.9542761562925165	-0.3228341336927681	0.0	0.9640871825354382	-0.25612265829960496	0.0	0.9579455848261182	-0.40830841937274104	0.0	0.9619273061675947	-0.3306181684324451	0.0	0.9664684592237147	-0.2653025905124052	0.0
36	1.2050209205020919	0.9568045600368178	-0.5516994197846734	0.0	0.9581407265074524	-0.5524323128666441	0.0	0.9602562000401071	-0.6662208677136682	0.0	0.9376281522950122	-0.7882198362118075	0.0	0.9704111082241424	-0.8064828166935847	0.0	0.9602885141935623	-0.8121471248903686	0.0	0.927786710386305	-0.8054414154773304	0.0	0.960105473293338	-0.5520050781869196	0.0	0.9623157861137077	-0.6656034999475609	0.0	0.9422921734214423	-0.7809517789070337	0.0	0.9814357690341656	-0.8010436297113313	0.0	0.9752962467622427	-0.7940241368512009	0.0	0.9276156420878734	-0.7936536482617554	0.0	0.9607780589980576	-0.397944734604076	0.0	0.9862171150136962	-0.31842794694419113	0.0	0.9903788418291796	-0.3600109729348335	0.0	0.9515044252955633	-0.40321908684945834	0.0	0.9544282214461706	-0.32183882454540946	0.0	0.9635351653084995	-0.2552129081636053	0.0	0.9584119051730258	-0.407367971444215	0.0	0.9621264521254635	-0.32970755045871536	0.0	0.9659826928542702	-0.26444911267564325	0.0
37	1.2384937238493723	0.9572682361116992	-0.5507798261799519	0.0	0.9583923727085841	-0.5515277088434563	0.0	0.9603799899787431	-0.6657344640472765	0.0	0.9377805232416162	-0.7880284861498046	0.0	0.9708164598426504	-0.8062743021960386	0.0	0.9605470986142376	-0.8120250234326455	0.0	0.9279088361399667	-0.8052263478768493	0.0	0.9603527802625266	-0.5512152570797612	0.0	0.9623541609829795	-0.6651489001726059	0.0	0.9423940418104781	-0.7810172840774687	0.0	0.9815572594249954	-0.801114166795624	0.0	0.9754825248032611	-0.7943965950948055	0.0	0.9274743764451443	-0.7936962285354533	0.0	0.9611788517227502	-0.39732906156062836	0.0	0.9861883530751208	-0.31773218758869226	0.0	0.9908272985115925	-0.35915316800505576	0.0	0.9518397979265183	-0.4026309724195841	0.0	0.9545201044559193	-0.32151125419215626	0.0	0.9629019939325438	-0.2549467358326609	0.0	0.9589579525492351	-0.40692366955358905	0.0	0.9623645804251135	-0.3295221359307556	0.0	0.9653414299349248	-0.2641569164275406	0.0
38	1.2719665271966527	0.9576981590193623	-0.5505138856773858	0.0	0.9585322172388611	-0.5511853703491644	0.0	0.9605289950647062	-0.6659850081130113	0.0	0.9379387935905473	-0.7884358509569493	0.0	0.9710116173943758	-0.8068588583760494	0.0	0.9606643403886586	-0.8125876045220416	0.0	0.9280218851896134	-0.805544995855811	0.0	0.9605265807048609	-0.5510011431148406	0.0	0.9623959752751942	-0.6653773589354727	0.0	0.9423877369976417	-0.7816937874740546	0.0	0.9814660091766926	-0.8019766834154668	0.0	0.9753853769627571	-0.7956138020857508	0.0	0.9273709079921598	-0.7944425466559705	0.0	0.9615555018002571	-0.39726334461014823	0.0	0.9862055603041601	-0.3179294174897888	0.0	0.991297539617165	-0.3588146623836078	0.0	0.9520117582686953	-0.40262494358097034	0.0	0.9545435047192081	-0.32184888187323735	0.0	0.9622343946663968	-0.2552327384117956	0.0	0.9595775894749259	-0.40702779709667064	0.0	0.9625839517958737	-0.330082815236976	0.0	0.9646268211741795	-0.26435900187623346	0.0
39	1.305439330543933	0.9580365165943091	-0.5510163336973704	0.0	0.958629581910348	-0.5515274574184963	0.0	0.9607590507918695	-0.6669007819177583	0.0	0.9380956826597244	-0.7894072060966598	0.0	0.9709777960219694	-0.8081326762854992	0.0	0.9606552971614746	-0.8137493690922468	0.0	0.928110257382577	-0.806393185469044	0.0	0.9606681442717082	-0.5514565962297682	0.0	0.9624909467573579	-0.6662541944249543	0.0	0.9422923147279738	-0.7828638947348889	0.0	0.9812170614388519	-0.8035359066828587	0.0	0.9750410802559426	-0.7974795014985571	0.0	0.9272978103468806	-0.7958501702703145	0.0	0.961954290554794	-0.3977428953886614	0.0	0.986369962130749	-0.31902684603931336	0.0	0.9917356438742964	-0.359114589210845	0.0	0.9520561945867222	-0.40322586673349503	0.0	0.9545212697563279	-0.32280394615044766	0.0	0.9615465261848337	-0.25590562081161705	0.0	0.9602204777291939	-0.4077069359621205	0.0	0.9627661426105669	-0.33134132895311036	0.0	0.9638980149181661	-0.2649306872030527	0.0
